<svg xmlns="http://www.w3.org/2000/svg" width="32" height="32" viewBox="0 0 36 36" fill="none">
  <rect width="36" height="36" rx="9" fill="#0A0A0B"/>
  <rect x="1.5" y="1.5" width="33" height="33" rx="9" stroke="#7c3aed" stroke-width="2"/>
  <path d="M13 11.5c-2.2 0-3.8 1.5-3.8 3.6 0 2 1.5 3.4 3.6 3.4 1.1 0 2-.4 2.6-1.1v1.2c0 1.9-1 3-2.6 3-1 0-1.8-.4-2.2-1.2l-1.9 1c.7 1.5 2.2 2.3 4.1 2.3 2.9 0 4.7-1.9 4.7-5.1v-3.3c0-2.3-1.7-3.8-4.5-3.8Zm.1 2c1.1 0 1.9.7 1.9 1.7s-.8 1.6-1.9 1.6-1.9-.7-1.9-1.6.8-1.7 1.9-1.7Z" fill="#f5f3ef"/>
  <path d="M20 12l1.7 8 1.8-5.5L25.3 20 27 12" stroke="#d4a24c" stroke-width="2" stroke-linecap="round" stroke-linejoin="round"/>
</svg>
